# Blender v2.82 (sub 7) OBJ File: ''
# www.blender.org
mtllib cube.mtl
o Cube_Cube.001
v -2.472415 3.288637 2.834849
v -2.472415 8.297925 2.834849
v -2.472415 3.288637 -2.174439
v -2.472415 8.297925 -2.174439
v 2.536873 3.288637 2.834849
v 2.536873 8.297925 2.834849
v 2.536873 3.288637 -2.174439
v 2.536873 8.297925 -2.174439
v -2.472415 3.288637 -0.922117
v -2.472415 3.288637 0.330205
v -2.472415 3.288637 1.582527
v -2.472415 4.540959 2.834849
v -2.472415 5.793281 2.834849
v -2.472415 7.045603 2.834849
v -2.472415 8.297925 1.582527
v -2.472415 8.297925 0.330205
v -2.472415 8.297925 -0.922117
v -2.472415 7.045603 -2.174439
v -2.472415 5.793281 -2.174439
v -2.472415 4.540959 -2.174439
v 1.284551 3.288637 -2.174439
v 0.032229 3.288637 -2.174439
v -1.220093 3.288637 -2.174439
v -1.220093 8.297925 -2.174439
v 0.032229 8.297925 -2.174439
v 1.284551 8.297925 -2.174439
v 2.536873 7.045603 -2.174439
v 2.536873 5.793281 -2.174439
v 2.536873 4.540959 -2.174439
v 2.536873 3.288637 1.582527
v 2.536873 3.288637 0.330205
v 2.536873 3.288637 -0.922117
v 2.536873 8.297925 -0.922117
v 2.536873 8.297925 0.330205
v 2.536873 8.297925 1.582527
v 2.536873 7.045603 2.834849
v 2.536873 5.793281 2.834849
v 2.536873 4.540959 2.834849
v -1.220093 3.288637 2.834849
v 0.032229 3.288637 2.834849
v 1.284551 3.288637 2.834849
v 1.284551 8.297925 2.834849
v 0.032229 8.297925 2.834849
v -1.220093 8.297925 2.834849
v -2.472415 4.540959 -0.922117
v -2.472415 5.793281 0.330205
v -2.472415 7.045603 1.582527
v 1.284551 4.540959 -2.174439
v 0.032229 5.793281 -2.174439
v -1.220093 7.045603 -2.174439
v 2.536873 4.540959 1.582527
v 2.536873 5.793281 0.330205
v 2.536873 7.045603 -0.922117
v -1.220093 4.540959 2.834849
v 0.032229 5.793281 2.834849
v 1.284551 7.045603 2.834849
v -1.220093 3.288637 1.582527
v 0.032229 3.288637 0.330205
v 1.284551 3.288637 -0.922117
v 1.284551 8.297925 1.582527
v 0.032229 8.297925 0.330205
v -1.220093 8.297925 -0.922117
v -2.472415 4.958400 1.165086
v -2.472415 6.199126 1.785450
v -2.472415 5.319312 0.804174
v -2.472415 4.338037 -0.075640
v -2.472415 4.236576 0.804174
v -2.472415 4.338037 1.785450
v -2.472415 5.319312 1.886911
v -0.802652 4.958400 -2.174439
v -1.423016 6.199126 -2.174439
v -0.441740 5.319312 -2.174439
v 0.438074 4.338037 -2.174439
v -0.441740 4.236576 -2.174439
v -1.423016 4.338037 -2.174439
v -1.524477 5.319312 -2.174439
v 2.536873 4.958400 -0.504676
v 2.536873 6.199126 -1.125040
v 2.536873 5.319312 -0.143764
v 2.536873 4.338037 0.736050
v 2.536873 4.236576 -0.143764
v 2.536873 4.338037 -1.125039
v 2.536873 5.319312 -1.226501
v 0.867110 4.958400 2.834849
v 1.487473 6.199126 2.834849
v 0.506198 5.319312 2.834849
v -0.373616 4.338037 2.834849
v 0.506198 4.236576 2.834849
v 1.487473 4.338037 2.834849
v 1.588934 5.319312 2.834849
v -0.802652 3.288637 -0.504676
v 0.438074 3.288637 -1.125040
v -0.441740 3.288637 -0.143764
v -1.423016 3.288637 0.736050
v -1.524477 3.288637 -0.143764
v -1.423016 3.288637 -1.125039
v -0.441740 3.288637 -1.226501
v 0.867110 8.297925 -0.504676
v -0.373616 8.297925 -1.125040
v 0.506198 8.297925 -0.143764
v 1.487473 8.297925 0.736050
v 1.588934 8.297925 -0.143764
v 1.487473 8.297925 -1.125039
v 0.506198 8.297925 -1.226501
v -2.472415 6.628162 -0.504676
v -2.472415 7.248526 0.736050
v -2.472415 7.349987 -0.143764
v -2.472415 7.248526 -1.125039
v -2.472415 6.267250 -1.226501
v -2.472415 5.387436 -1.125040
v -2.472415 6.267250 -0.143764
v 0.867110 6.628162 -2.174439
v -0.373616 7.248526 -2.174439
v 0.506198 7.349987 -2.174439
v 1.487473 7.248526 -2.174439
v 1.588934 6.267250 -2.174439
v 1.487473 5.387436 -2.174439
v 0.506198 6.267250 -2.174439
v 2.536873 6.628162 1.165086
v 2.536873 7.248526 -0.075640
v 2.536873 7.349987 0.804174
v 2.536873 7.248526 1.785450
v 2.536873 6.267250 1.886911
v 2.536873 5.387436 1.785450
v 2.536873 6.267250 0.804174
v -0.802652 6.628162 2.834849
v 0.438074 7.248526 2.834849
v -0.441740 7.349987 2.834849
v -1.423016 7.248526 2.834849
v -1.524477 6.267250 2.834849
v -1.423016 5.387436 2.834849
v -0.441740 6.267250 2.834849
v 0.867110 3.288637 1.165086
v 1.487473 3.288637 -0.075640
v 1.588934 3.288637 0.804174
v 1.487473 3.288637 1.785450
v 0.506198 3.288637 1.886911
v -0.373616 3.288637 1.785450
v 0.506198 3.288637 0.804174
v -0.802652 8.297925 1.165086
v -1.423016 8.297925 -0.075640
v -1.524477 8.297925 0.804174
v -1.423016 8.297925 1.785450
v -0.441740 8.297925 1.886911
v 0.438074 8.297925 1.785450
v -0.441740 8.297925 0.804174
vt 0.476346 0.101345
vt 0.476346 0.047309
vt 0.520255 0.052373
vt 0.422309 0.101345
vt 0.427373 0.145255
vt 0.427373 0.052373
vt 0.458333 0.083333
vt 0.562500 0.062500
vt 0.562500 0.000000
vt 0.625000 0.000000
vt 0.500000 0.125000
vt 0.500000 0.000000
vt 0.375000 0.187500
vt 0.437500 0.187500
vt 0.375000 0.250000
vt 0.375000 0.125000
vt 0.375000 0.000000
vt 0.375000 0.062500
vt 0.437500 0.000000
vt 0.476346 0.351346
vt 0.476346 0.297309
vt 0.520255 0.302373
vt 0.422309 0.351345
vt 0.427373 0.395255
vt 0.427373 0.302373
vt 0.458333 0.333333
vt 0.562500 0.312500
vt 0.562500 0.250000
vt 0.625000 0.250000
vt 0.500000 0.375000
vt 0.500000 0.250000
vt 0.375000 0.437500
vt 0.437500 0.437500
vt 0.375000 0.500000
vt 0.375000 0.375000
vt 0.375000 0.312500
vt 0.437500 0.250000
vt 0.476346 0.601346
vt 0.476346 0.547309
vt 0.520255 0.552373
vt 0.422309 0.601345
vt 0.427373 0.645255
vt 0.427373 0.552373
vt 0.458333 0.583333
vt 0.562500 0.562500
vt 0.562500 0.500000
vt 0.625000 0.500000
vt 0.500000 0.625000
vt 0.500000 0.500000
vt 0.375000 0.687500
vt 0.437500 0.687500
vt 0.375000 0.750000
vt 0.375000 0.625000
vt 0.375000 0.562500
vt 0.437500 0.500000
vt 0.476346 0.851346
vt 0.476346 0.797309
vt 0.520255 0.802373
vt 0.422309 0.851346
vt 0.427373 0.895255
vt 0.427373 0.802373
vt 0.458333 0.833333
vt 0.562500 0.812500
vt 0.562500 0.750000
vt 0.625000 0.750000
vt 0.500000 0.875000
vt 0.500000 0.750000
vt 0.375000 0.937500
vt 0.437500 0.937500
vt 0.375000 1.000000
vt 0.375000 0.875000
vt 0.375000 0.812500
vt 0.437500 0.750000
vt 0.226345 0.601346
vt 0.226345 0.547309
vt 0.270255 0.552373
vt 0.172309 0.601345
vt 0.177373 0.645255
vt 0.177373 0.552373
vt 0.208333 0.583333
vt 0.312500 0.562500
vt 0.312500 0.500000
vt 0.250000 0.625000
vt 0.250000 0.500000
vt 0.125000 0.687500
vt 0.187500 0.687500
vt 0.125000 0.750000
vt 0.125000 0.625000
vt 0.125000 0.500000
vt 0.125000 0.562500
vt 0.187500 0.500000
vt 0.726346 0.601346
vt 0.726346 0.547309
vt 0.770255 0.552373
vt 0.672309 0.601345
vt 0.677373 0.645255
vt 0.677373 0.552373
vt 0.708333 0.583333
vt 0.812500 0.562500
vt 0.812500 0.500000
vt 0.875000 0.500000
vt 0.750000 0.625000
vt 0.750000 0.500000
vt 0.625000 0.687500
vt 0.687500 0.687500
vt 0.625000 0.625000
vt 0.625000 0.562500
vt 0.687500 0.500000
vt 0.577691 0.148655
vt 0.523655 0.148655
vt 0.572627 0.104745
vt 0.572627 0.197627
vt 0.541667 0.166667
vt 0.523655 0.202691
vt 0.479745 0.197627
vt 0.625000 0.062500
vt 0.625000 0.125000
vt 0.625000 0.187500
vt 0.577691 0.398655
vt 0.523655 0.398655
vt 0.572627 0.354745
vt 0.572627 0.447627
vt 0.541667 0.416667
vt 0.523655 0.452691
vt 0.479745 0.447627
vt 0.625000 0.312500
vt 0.625000 0.375000
vt 0.625000 0.437500
vt 0.577691 0.648655
vt 0.523655 0.648655
vt 0.572627 0.604745
vt 0.572627 0.697627
vt 0.541667 0.666667
vt 0.523655 0.702691
vt 0.479745 0.697627
vt 0.577691 0.898655
vt 0.523655 0.898655
vt 0.572627 0.854746
vt 0.572627 0.947627
vt 0.541667 0.916667
vt 0.523655 0.952691
vt 0.479745 0.947627
vt 0.625000 0.812500
vt 0.625000 0.875000
vt 0.625000 1.000000
vt 0.625000 0.937500
vt 0.562500 1.000000
vt 0.437500 1.000000
vt 0.500000 1.000000
vt 0.327691 0.648655
vt 0.273655 0.648655
vt 0.322627 0.604745
vt 0.322627 0.697627
vt 0.291667 0.666667
vt 0.273655 0.702691
vt 0.229745 0.697627
vt 0.312500 0.750000
vt 0.187500 0.750000
vt 0.250000 0.750000
vt 0.827691 0.648655
vt 0.773655 0.648655
vt 0.822627 0.604745
vt 0.822627 0.697627
vt 0.791667 0.666667
vt 0.773655 0.702691
vt 0.729746 0.697627
vt 0.875000 0.562500
vt 0.875000 0.625000
vt 0.875000 0.750000
vt 0.875000 0.687500
vt 0.812500 0.750000
vt 0.687500 0.750000
vt 0.750000 0.750000
vn -1.0000 -0.0000 0.0000
vn 0.0000 -0.0000 -1.0000
vn 1.0000 -0.0000 0.0000
vn 0.0000 -0.0000 1.0000
vn -0.0000 -1.0000 0.0000
vn 0.0000 1.0000 0.0000
usemtl None
s off
f 65/1/1 69/2/1 64/3/1
f 67/4/1 65/1/1 66/5/1
f 68/6/1 63/7/1 67/4/1
f 47/8/1 14/9/1 2/10/1
f 46/11/1 64/3/1 47/8/1
f 64/3/1 13/12/1 14/9/1
f 9/13/1 45/14/1 3/15/1
f 10/16/1 66/5/1 9/13/1
f 66/5/1 46/11/1 45/14/1
f 1/17/1 68/6/1 11/18/1
f 12/19/1 69/2/1 68/6/1
f 11/18/1 67/4/1 10/16/1
f 72/20/2 76/21/2 71/22/2
f 74/23/2 72/20/2 73/24/2
f 75/25/2 70/26/2 74/23/2
f 50/27/2 18/28/2 4/29/2
f 49/30/2 71/22/2 50/27/2
f 71/22/2 19/31/2 18/28/2
f 21/32/2 48/33/2 7/34/2
f 22/35/2 73/24/2 21/32/2
f 73/24/2 49/30/2 48/33/2
f 3/15/2 75/25/2 23/36/2
f 20/37/2 76/21/2 75/25/2
f 23/36/2 74/23/2 22/35/2
f 79/38/3 83/39/3 78/40/3
f 81/41/3 79/38/3 80/42/3
f 82/43/3 77/44/3 81/41/3
f 53/45/3 27/46/3 8/47/3
f 52/48/3 78/40/3 53/45/3
f 78/40/3 28/49/3 27/46/3
f 30/50/3 51/51/3 5/52/3
f 31/53/3 80/42/3 30/50/3
f 80/42/3 52/48/3 51/51/3
f 7/34/3 82/43/3 32/54/3
f 29/55/3 83/39/3 82/43/3
f 32/54/3 81/41/3 31/53/3
f 86/56/4 90/57/4 85/58/4
f 88/59/4 86/56/4 87/60/4
f 89/61/4 84/62/4 88/59/4
f 56/63/4 36/64/4 6/65/4
f 55/66/4 85/58/4 56/63/4
f 85/58/4 37/67/4 36/64/4
f 39/68/4 54/69/4 1/70/4
f 40/71/4 87/60/4 39/68/4
f 87/60/4 55/66/4 54/69/4
f 5/52/4 89/61/4 41/72/4
f 38/73/4 90/57/4 89/61/4
f 41/72/4 88/59/4 40/71/4
f 93/74/5 97/75/5 92/76/5
f 95/77/5 93/74/5 94/78/5
f 96/79/5 91/80/5 95/77/5
f 59/81/5 21/82/5 7/34/5
f 58/83/5 92/76/5 59/81/5
f 92/76/5 22/84/5 21/82/5
f 11/85/5 57/86/5 1/87/5
f 10/88/5 94/78/5 11/85/5
f 94/78/5 58/83/5 57/86/5
f 3/89/5 96/79/5 9/90/5
f 23/91/5 97/75/5 96/79/5
f 9/90/5 95/77/5 10/88/5
f 100/92/6 104/93/6 99/94/6
f 102/95/6 100/92/6 101/96/6
f 103/97/6 98/98/6 102/95/6
f 62/99/6 24/100/6 4/101/6
f 61/102/6 99/94/6 62/99/6
f 99/94/6 25/103/6 24/100/6
f 35/104/6 60/105/6 6/65/6
f 34/106/6 101/96/6 35/104/6
f 101/96/6 61/102/6 60/105/6
f 8/47/6 103/97/6 33/107/6
f 26/108/6 104/93/6 103/97/6
f 33/107/6 102/95/6 34/106/6
f 107/109/1 111/110/1 106/111/1
f 108/112/1 105/113/1 107/109/1
f 111/110/1 109/114/1 110/115/1
f 15/116/1 47/8/1 2/10/1
f 16/117/1 106/111/1 15/116/1
f 106/111/1 46/11/1 47/8/1
f 4/29/1 108/112/1 17/118/1
f 18/28/1 109/114/1 108/112/1
f 17/118/1 107/109/1 16/117/1
f 45/14/1 20/37/1 3/15/1
f 46/11/1 110/115/1 45/14/1
f 110/115/1 19/31/1 20/37/1
f 114/119/2 118/120/2 113/121/2
f 115/122/2 112/123/2 114/119/2
f 118/120/2 116/124/2 117/125/2
f 24/126/2 50/27/2 4/29/2
f 25/127/2 113/121/2 24/126/2
f 113/121/2 49/30/2 50/27/2
f 8/47/2 115/122/2 26/128/2
f 27/46/2 116/124/2 115/122/2
f 26/128/2 114/119/2 25/127/2
f 48/33/2 29/55/2 7/34/2
f 49/30/2 117/125/2 48/33/2
f 117/125/2 28/49/2 29/55/2
f 121/129/3 125/130/3 120/131/3
f 122/132/3 119/133/3 121/129/3
f 125/130/3 123/134/3 124/135/3
f 33/107/3 53/45/3 8/47/3
f 34/106/3 120/131/3 33/107/3
f 120/131/3 52/48/3 53/45/3
f 6/65/3 122/132/3 35/104/3
f 36/64/3 123/134/3 122/132/3
f 35/104/3 121/129/3 34/106/3
f 51/51/3 38/73/3 5/52/3
f 52/48/3 124/135/3 51/51/3
f 124/135/3 37/67/3 38/73/3
f 128/136/4 132/137/4 127/138/4
f 129/139/4 126/140/4 128/136/4
f 132/137/4 130/141/4 131/142/4
f 42/143/4 56/63/4 6/65/4
f 43/144/4 127/138/4 42/143/4
f 127/138/4 55/66/4 56/63/4
f 2/145/4 129/139/4 44/146/4
f 14/147/4 130/141/4 129/139/4
f 44/146/4 128/136/4 43/144/4
f 54/69/4 12/148/4 1/70/4
f 55/66/4 131/142/4 54/69/4
f 131/142/4 13/149/4 12/148/4
f 135/150/5 139/151/5 134/152/5
f 136/153/5 133/154/5 135/150/5
f 139/151/5 137/155/5 138/156/5
f 32/54/5 59/81/5 7/34/5
f 31/53/5 134/152/5 32/54/5
f 134/152/5 58/83/5 59/81/5
f 5/52/5 136/153/5 30/50/5
f 41/157/5 137/155/5 136/153/5
f 30/50/5 135/150/5 31/53/5
f 57/86/5 39/158/5 1/87/5
f 58/83/5 138/156/5 57/86/5
f 138/156/5 40/159/5 39/158/5
f 142/160/6 146/161/6 141/162/6
f 143/163/6 140/164/6 142/160/6
f 146/161/6 144/165/6 145/166/6
f 17/167/6 62/99/6 4/101/6
f 16/168/6 141/162/6 17/167/6
f 141/162/6 61/102/6 62/99/6
f 2/169/6 143/163/6 15/170/6
f 44/171/6 144/165/6 143/163/6
f 15/170/6 142/160/6 16/168/6
f 60/105/6 42/172/6 6/65/6
f 61/102/6 145/166/6 60/105/6
f 145/166/6 43/173/6 42/172/6
f 65/1/1 63/7/1 69/2/1
f 67/4/1 63/7/1 65/1/1
f 68/6/1 69/2/1 63/7/1
f 47/8/1 64/3/1 14/9/1
f 46/11/1 65/1/1 64/3/1
f 64/3/1 69/2/1 13/12/1
f 9/13/1 66/5/1 45/14/1
f 10/16/1 67/4/1 66/5/1
f 66/5/1 65/1/1 46/11/1
f 1/17/1 12/19/1 68/6/1
f 12/19/1 13/12/1 69/2/1
f 11/18/1 68/6/1 67/4/1
f 72/20/2 70/26/2 76/21/2
f 74/23/2 70/26/2 72/20/2
f 75/25/2 76/21/2 70/26/2
f 50/27/2 71/22/2 18/28/2
f 49/30/2 72/20/2 71/22/2
f 71/22/2 76/21/2 19/31/2
f 21/32/2 73/24/2 48/33/2
f 22/35/2 74/23/2 73/24/2
f 73/24/2 72/20/2 49/30/2
f 3/15/2 20/37/2 75/25/2
f 20/37/2 19/31/2 76/21/2
f 23/36/2 75/25/2 74/23/2
f 79/38/3 77/44/3 83/39/3
f 81/41/3 77/44/3 79/38/3
f 82/43/3 83/39/3 77/44/3
f 53/45/3 78/40/3 27/46/3
f 52/48/3 79/38/3 78/40/3
f 78/40/3 83/39/3 28/49/3
f 30/50/3 80/42/3 51/51/3
f 31/53/3 81/41/3 80/42/3
f 80/42/3 79/38/3 52/48/3
f 7/34/3 29/55/3 82/43/3
f 29/55/3 28/49/3 83/39/3
f 32/54/3 82/43/3 81/41/3
f 86/56/4 84/62/4 90/57/4
f 88/59/4 84/62/4 86/56/4
f 89/61/4 90/57/4 84/62/4
f 56/63/4 85/58/4 36/64/4
f 55/66/4 86/56/4 85/58/4
f 85/58/4 90/57/4 37/67/4
f 39/68/4 87/60/4 54/69/4
f 40/71/4 88/59/4 87/60/4
f 87/60/4 86/56/4 55/66/4
f 5/52/4 38/73/4 89/61/4
f 38/73/4 37/67/4 90/57/4
f 41/72/4 89/61/4 88/59/4
f 93/74/5 91/80/5 97/75/5
f 95/77/5 91/80/5 93/74/5
f 96/79/5 97/75/5 91/80/5
f 59/81/5 92/76/5 21/82/5
f 58/83/5 93/74/5 92/76/5
f 92/76/5 97/75/5 22/84/5
f 11/85/5 94/78/5 57/86/5
f 10/88/5 95/77/5 94/78/5
f 94/78/5 93/74/5 58/83/5
f 3/89/5 23/91/5 96/79/5
f 23/91/5 22/84/5 97/75/5
f 9/90/5 96/79/5 95/77/5
f 100/92/6 98/98/6 104/93/6
f 102/95/6 98/98/6 100/92/6
f 103/97/6 104/93/6 98/98/6
f 62/99/6 99/94/6 24/100/6
f 61/102/6 100/92/6 99/94/6
f 99/94/6 104/93/6 25/103/6
f 35/104/6 101/96/6 60/105/6
f 34/106/6 102/95/6 101/96/6
f 101/96/6 100/92/6 61/102/6
f 8/47/6 26/108/6 103/97/6
f 26/108/6 25/103/6 104/93/6
f 33/107/6 103/97/6 102/95/6
f 107/109/1 105/113/1 111/110/1
f 108/112/1 109/114/1 105/113/1
f 111/110/1 105/113/1 109/114/1
f 15/116/1 106/111/1 47/8/1
f 16/117/1 107/109/1 106/111/1
f 106/111/1 111/110/1 46/11/1
f 4/29/1 18/28/1 108/112/1
f 18/28/1 19/31/1 109/114/1
f 17/118/1 108/112/1 107/109/1
f 45/14/1 110/115/1 20/37/1
f 46/11/1 111/110/1 110/115/1
f 110/115/1 109/114/1 19/31/1
f 114/119/2 112/123/2 118/120/2
f 115/122/2 116/124/2 112/123/2
f 118/120/2 112/123/2 116/124/2
f 24/126/2 113/121/2 50/27/2
f 25/127/2 114/119/2 113/121/2
f 113/121/2 118/120/2 49/30/2
f 8/47/2 27/46/2 115/122/2
f 27/46/2 28/49/2 116/124/2
f 26/128/2 115/122/2 114/119/2
f 48/33/2 117/125/2 29/55/2
f 49/30/2 118/120/2 117/125/2
f 117/125/2 116/124/2 28/49/2
f 121/129/3 119/133/3 125/130/3
f 122/132/3 123/134/3 119/133/3
f 125/130/3 119/133/3 123/134/3
f 33/107/3 120/131/3 53/45/3
f 34/106/3 121/129/3 120/131/3
f 120/131/3 125/130/3 52/48/3
f 6/65/3 36/64/3 122/132/3
f 36/64/3 37/67/3 123/134/3
f 35/104/3 122/132/3 121/129/3
f 51/51/3 124/135/3 38/73/3
f 52/48/3 125/130/3 124/135/3
f 124/135/3 123/134/3 37/67/3
f 128/136/4 126/140/4 132/137/4
f 129/139/4 130/141/4 126/140/4
f 132/137/4 126/140/4 130/141/4
f 42/143/4 127/138/4 56/63/4
f 43/144/4 128/136/4 127/138/4
f 127/138/4 132/137/4 55/66/4
f 2/145/4 14/147/4 129/139/4
f 14/147/4 13/149/4 130/141/4
f 44/146/4 129/139/4 128/136/4
f 54/69/4 131/142/4 12/148/4
f 55/66/4 132/137/4 131/142/4
f 131/142/4 130/141/4 13/149/4
f 135/150/5 133/154/5 139/151/5
f 136/153/5 137/155/5 133/154/5
f 139/151/5 133/154/5 137/155/5
f 32/54/5 134/152/5 59/81/5
f 31/53/5 135/150/5 134/152/5
f 134/152/5 139/151/5 58/83/5
f 5/52/5 41/157/5 136/153/5
f 41/157/5 40/159/5 137/155/5
f 30/50/5 136/153/5 135/150/5
f 57/86/5 138/156/5 39/158/5
f 58/83/5 139/151/5 138/156/5
f 138/156/5 137/155/5 40/159/5
f 142/160/6 140/164/6 146/161/6
f 143/163/6 144/165/6 140/164/6
f 146/161/6 140/164/6 144/165/6
f 17/167/6 141/162/6 62/99/6
f 16/168/6 142/160/6 141/162/6
f 141/162/6 146/161/6 61/102/6
f 2/169/6 44/171/6 143/163/6
f 44/171/6 43/173/6 144/165/6
f 15/170/6 143/163/6 142/160/6
f 60/105/6 145/166/6 42/172/6
f 61/102/6 146/161/6 145/166/6
f 145/166/6 144/165/6 43/173/6
